<?xml version="1.0" encoding="utf-8"?>
<svg version="1.1" xmlns:xlink="http://www.w3.org/1999/xlink" width="31px" height="87px" xmlns="http://www.w3.org/2000/svg">
  <g transform="matrix(1 0 0 1 -335 -545 )">
    <path d="M 30.0796875 13.3510044642857  C 30.6932291666667 13.9659598214286  31 14.6941964285714  31 15.5357142857143  C 31 16.3772321428571  30.6932291666667 17.10546875  30.0796875 17.7204241071429  C 29.4661458333333 18.3353794642857  28.7395833333333 18.6428571428571  27.9 18.6428571428571  L 21.7 18.6428571428571  L 21.7 68.3571428571429  L 27.9 68.3571428571429  C 28.7395833333333 68.3571428571429  29.4661458333333 68.6646205357143  30.0796875 69.2795758928571  C 30.6932291666667 69.89453125  31 70.6227678571429  31 71.4642857142857  C 31 72.3058035714286  30.6932291666667 73.0340401785714  30.0796875 73.6489955357143  L 17.6796875 86.0775669642857  C 17.0661458333333 86.6925223214286  16.3395833333333 87  15.5 87  C 14.6604166666667 87  13.9338541666667 86.6925223214286  13.3203125 86.0775669642857  L 0.9203125 73.6489955357143  C 0.306770833333334 73.0340401785714  0 72.3058035714286  0 71.4642857142857  C 0 70.6227678571429  0.306770833333334 69.89453125  0.9203125 69.2795758928571  C 1.53385416666667 68.6646205357143  2.26041666666667 68.3571428571429  3.1 68.3571428571429  L 9.3 68.3571428571429  L 9.3 18.6428571428571  L 3.1 18.6428571428571  C 2.26041666666667 18.6428571428571  1.53385416666667 18.3353794642857  0.9203125 17.7204241071429  C 0.306770833333334 17.10546875  0 16.3772321428571  0 15.5357142857143  C 0 14.6941964285714  0.306770833333334 13.9659598214286  0.9203125 13.3510044642857  L 13.3203125 0.922433035714288  C 13.9338541666667 0.307477678571436  14.6604166666667 0  15.5 0  C 16.3395833333333 0  17.0661458333333 0.307477678571436  17.6796875 0.922433035714288  L 30.0796875 13.3510044642857  Z " fill-rule="nonzero" fill="#ffffff" stroke="none" transform="matrix(1 0 0 1 335 545 )" />
  </g>
</svg>