<?xml version="1.0" encoding="utf-8"?>
<svg version="1.1" xmlns:xlink="http://www.w3.org/1999/xlink" width="21px" height="21px" xmlns="http://www.w3.org/2000/svg">
  <g transform="matrix(1 0 0 1 -183 -322 )">
    <path d="M 193.5 322  C 199.38 322  204 326.62  204 332.5  C 204 338.38  199.38 343  193.5 343  C 187.62 343  183 338.38  183 332.5  C 183 326.62  187.62 322  193.5 322  Z " fill-rule="nonzero" fill="#ffffff" stroke="none" />
    <path d="M 193.5 322.5  C 199.1 322.5  203.5 326.9  203.5 332.5  C 203.5 338.1  199.1 342.5  193.5 342.5  C 187.9 342.5  183.5 338.1  183.5 332.5  C 183.5 326.9  187.9 322.5  193.5 322.5  Z " stroke-width="1" stroke="#797979" fill="none" />
  </g>
</svg>