<?xml version="1.0" encoding="utf-8"?>
<svg version="1.1" xmlns:xlink="http://www.w3.org/1999/xlink" width="53px" height="53px" xmlns="http://www.w3.org/2000/svg">
  <g transform="matrix(1 0 0 1 -213 -331 )">
    <path d="M 239.5 331  C 254.34 331  266 342.66  266 357.5  C 266 372.34  254.34 384  239.5 384  C 224.66 384  213 372.34  213 357.5  C 213 342.66  224.66 331  239.5 331  Z " fill-rule="nonzero" fill="#ffffff" stroke="none" />
    <path d="M 239.5 331.5  C 254.06 331.5  265.5 342.94  265.5 357.5  C 265.5 372.06  254.06 383.5  239.5 383.5  C 224.94 383.5  213.5 372.06  213.5 357.5  C 213.5 342.94  224.94 331.5  239.5 331.5  Z " stroke-width="1" stroke="#797979" fill="none" />
  </g>
</svg>