<?xml version="1.0" encoding="utf-8"?>
<svg version="1.1" xmlns:xlink="http://www.w3.org/1999/xlink" width="21px" height="21px" xmlns="http://www.w3.org/2000/svg">
  <defs>
    <mask fill="white" id="clip68">
      <path d="M 0 10.5  C 0 10.426398310335  0.000723873857168655 10.3529940408129  0.0021650317962667 10.2797937812097  C 0.115857218188012 4.5050640758123  4.69360168966523 0  10.5 0  C 16.3800000000001 0  21 4.62  21 10.5  C 21 16.38  16.3800000000001 21  10.5 21  C 4.61999999999989 21  0 16.38  0 10.5  Z " fill-rule="evenodd" />
    </mask>
  </defs>
  <g transform="matrix(1 0 0 1 -314 -322 )">
    <path d="M 0 10.5  C 0 10.426398310335  0.000723873857168655 10.3529940408129  0.0021650317962667 10.2797937812097  C 0.115857218188012 4.5050640758123  4.69360168966523 0  10.5 0  C 16.3800000000001 0  21 4.62  21 10.5  C 21 16.38  16.3800000000001 21  10.5 21  C 4.61999999999989 21  0 16.38  0 10.5  Z " fill-rule="nonzero" fill="#ffffff" stroke="none" transform="matrix(1 0 0 1 314 322 )" />
    <path d="M 0 10.5  C 0 10.426398310335  0.000723873857168655 10.3529940408129  0.0021650317962667 10.2797937812097  C 0.115857218188012 4.5050640758123  4.69360168966523 0  10.5 0  C 16.3800000000001 0  21 4.62  21 10.5  C 21 16.38  16.3800000000001 21  10.5 21  C 4.61999999999989 21  0 16.38  0 10.5  Z " stroke-width="2" stroke="#797979" fill="none" transform="matrix(1 0 0 1 314 322 )" mask="url(#clip68)" />
  </g>
</svg>