<?xml version="1.0" encoding="utf-8"?>
<svg version="1.1" xmlns:xlink="http://www.w3.org/1999/xlink" width="167px" height="167px" xmlns="http://www.w3.org/2000/svg">
  <g transform="matrix(1 0 0 1 -178 -498 )">
    <path d="M 178 498  L 345 498  L 345 665  L 178 665  L 178 498  " fill-rule="nonzero" fill="#cccccc" stroke="none" />
    <path d="M 190 510  L 333 510  L 333 653  L 190 653  L 190 510  " fill-rule="nonzero" fill="#ffffff" stroke="none" />
    <path d="M 277.365 548.1  C 270.351 548.1  264.84 542.589  264.84 535.575  C 264.84 528.561  270.351 523.05  277.365 523.05  C 284.379 523.05  289.89 528.561  289.89 535.575  C 289.89 542.589  284.379 548.1  277.365 548.1  " fill-rule="nonzero" fill="#cccccc" stroke="none" />
    <path d="M 194 649  L 194 574.75  L 227.75 541  L 275 568  L 302 561.25  L 329 568  L 329 649  L 194 649  " fill-rule="nonzero" fill="#169bd5" stroke="none" />
  </g>
</svg>