<?xml version="1.0" encoding="utf-8"?>
<svg version="1.1" xmlns:xlink="http://www.w3.org/1999/xlink" width="139px" height="30px" xmlns="http://www.w3.org/2000/svg">
  <g transform="matrix(1 0 0 1 -1152 -515 )">
    <path d="M 1153 530  A 14 14 0 0 1 1167 516 L 1276 516  A 14 14 0 0 1 1290 530 A 14 14 0 0 1 1276 544 L 1167 544  A 14 14 0 0 1 1153 530 Z " fill-rule="nonzero" fill="#ffffff" stroke="none" />
    <path d="M 1152.5 530  A 14.5 14.5 0 0 1 1167 515.5 L 1276 515.5  A 14.5 14.5 0 0 1 1290.5 530 A 14.5 14.5 0 0 1 1276 544.5 L 1167 544.5  A 14.5 14.5 0 0 1 1152.5 530 Z " stroke-width="1" stroke="#555555" fill="none" stroke-opacity="0.690196078431373" />
  </g>
</svg>