<?xml version="1.0" encoding="utf-8"?>
<svg version="1.1" xmlns:xlink="http://www.w3.org/1999/xlink" width="100px" height="100px" xmlns="http://www.w3.org/2000/svg">
  <g transform="matrix(1 0 0 1 -300 -433 )">
    <path d="M 61.328125 61.328125  C 66.5965544871795 56.0596955128205  69.2307692307692 49.7195512820513  69.2307692307692 42.3076923076923  C 69.2307692307692 34.8958333333333  66.5965544871795 28.5556891025641  61.328125 23.2872596153846  C 56.0596955128205 18.0188301282051  49.7195512820513 15.3846153846154  42.3076923076923 15.3846153846154  C 34.8958333333333 15.3846153846154  28.5556891025641 18.0188301282051  23.2872596153846 23.2872596153846  C 18.0188301282051 28.5556891025641  15.3846153846154 34.8958333333333  15.3846153846154 42.3076923076923  C 15.3846153846154 49.7195512820513  18.0188301282051 56.0596955128205  23.2872596153846 61.328125  C 28.5556891025641 66.5965544871795  34.8958333333333 69.2307692307692  42.3076923076923 69.2307692307692  C 49.7195512820513 69.2307692307692  56.0596955128205 66.5965544871795  61.328125 61.328125  Z M 97.7764423076923 86.8990384615385  C 99.2588141025641 88.3814102564103  100 90.1842948717949  100 92.3076923076923  C 100 94.3910256410256  99.2387820512821 96.1939102564103  97.7163461538462 97.7163461538462  C 96.1939102564103 99.238782051282  94.3910256410256 100  92.3076923076923 100  C 90.1442307692308 100  88.3413461538462 99.238782051282  86.8990384615385 97.7163461538462  L 66.2860576923077 77.1634615384615  C 59.1145833333333 82.1314102564103  51.1217948717949 84.6153846153846  42.3076923076923 84.6153846153846  C 36.5785256410256 84.6153846153846  31.0997596153846 83.5036057692308  25.8713942307692 81.2800480769231  C 20.6430288461538 79.0564903846154  16.1358173076923 76.0516826923077  12.3497596153846 72.265625  C 8.56370192307692 68.4795673076923  5.55889423076923 63.9723557692308  3.33533653846154 58.7439903846154  C 1.11177884615385 53.515625  0 48.036858974359  0 42.3076923076923  C 0 36.5785256410256  1.11177884615385 31.0997596153846  3.33533653846154 25.8713942307692  C 5.55889423076923 20.6430288461538  8.56370192307692 16.1358173076923  12.3497596153846 12.3497596153846  C 16.1358173076923 8.56370192307693  20.6430288461538 5.55889423076923  25.8713942307692 3.33533653846154  C 31.0997596153846 1.11177884615384  36.5785256410256 0  42.3076923076923 0  C 48.036858974359 0  53.515625 1.11177884615384  58.7439903846154 3.33533653846154  C 63.9723557692308 5.55889423076923  68.4795673076923 8.56370192307693  72.265625 12.3497596153846  C 76.0516826923077 16.1358173076923  79.0564903846154 20.6430288461538  81.2800480769231 25.8713942307692  C 83.5036057692308 31.0997596153846  84.6153846153846 36.5785256410256  84.6153846153846 42.3076923076923  C 84.6153846153846 51.1217948717949  82.1314102564103 59.1145833333333  77.1634615384615 66.2860576923077  L 97.7764423076923 86.8990384615385  Z " fill-rule="nonzero" fill="#b7fdf4" stroke="none" transform="matrix(1 0 0 1 300 433 )" />
  </g>
</svg>