<?xml version="1.0" encoding="utf-8"?>
<svg version="1.1" xmlns:xlink="http://www.w3.org/1999/xlink" width="167px" height="167px" xmlns="http://www.w3.org/2000/svg">
  <g>
    <path d="M 0 0  L 167 0  L 167 167  L 0 167  L 0 0  " fill-rule="nonzero" fill="#cccccc" stroke="none" />
    <path d="M 12 12  L 155 12  L 155 155  L 12 155  L 12 12  " fill-rule="nonzero" fill="#ffffff" stroke="none" />
    <path d="M 99.365 50.1  C 92.351 50.1  86.84 44.589  86.84 37.575  C 86.84 30.561  92.351 25.05  99.365 25.05  C 106.379 25.05  111.89 30.561  111.89 37.575  C 111.89 44.589  106.379 50.1  99.365 50.1  " fill-rule="nonzero" fill="#cccccc" stroke="none" />
    <path d="M 16 151  L 16 76.75  L 49.75 43  L 97 70  L 124 63.25  L 151 70  L 151 151  L 16 151  " fill-rule="nonzero" fill="#169bd5" stroke="none" />
  </g>
</svg>