<?xml version="1.0" encoding="utf-8"?>
<svg version="1.1" xmlns:xlink="http://www.w3.org/1999/xlink" width="964px" height="12px" preserveAspectRatio="xMinYMid meet" viewBox="881 54  964 10" xmlns="http://www.w3.org/2000/svg">
  <path d="M 887.5 147  L 887.5 64  A 5 5 0 0 1 892 59.5 L 1366 59.5  A 3 3 0 0 1 1369 56.5 A 3 3 0 0 1 1372 59.5 L 1834 59.5  A 5 5 0 0 1 1839.5 64.5 L 1839.5 94  " stroke-width="3" stroke="#333333" fill="none" />
  <path d="M 882.4 144.3  L 887.5 150  L 892.6 144.3  L 887.5 138.9  L 882.4 144.3  Z M 1829.5 84.9  L 1839.5 97  L 1849.5 84.9  L 1839.5 89.8  L 1829.5 84.9  Z " fill-rule="nonzero" fill="#333333" stroke="none" />
</svg>