<?xml version="1.0" encoding="utf-8"?>
<svg version="1.1" xmlns:xlink="http://www.w3.org/1999/xlink" width="48px" height="48px" xmlns="http://www.w3.org/2000/svg">
  <g transform="matrix(1 0 0 1 -899 -845 )">
    <path d="M 923 845  C 936.44 845  947 855.56  947 869  C 947 882.44  936.44 893  923 893  C 909.56 893  899 882.44  899 869  C 899 855.56  909.56 845  923 845  Z " fill-rule="nonzero" fill="#ffffff" stroke="none" />
    <path d="M 923 845.5  C 936.16 845.5  946.5 855.84  946.5 869  C 946.5 882.16  936.16 892.5  923 892.5  C 909.84 892.5  899.5 882.16  899.5 869  C 899.5 855.84  909.84 845.5  923 845.5  Z " stroke-width="1" stroke="#797979" fill="none" />
  </g>
</svg>