<?xml version="1.0" encoding="utf-8"?>
<svg version="1.1" xmlns:xlink="http://www.w3.org/1999/xlink" width="15px" height="3px" xmlns="http://www.w3.org/2000/svg">
  <g transform="matrix(1 0 0 1 -277 -234 )">
    <path d="M 14.7017045454545 0.21875  C 14.9005681818182 0.364583333333332  15 0.541666666666666  15 0.75  L 15 2.25  C 15 2.45833333333333  14.9005681818182 2.63541666666667  14.7017045454545 2.78125  C 14.5028409090909 2.92708333333333  14.2613636363636 3  13.9772727272727 3  L 1.02272727272727 3  C 0.738636363636364 3  0.497159090909091 2.92708333333333  0.298295454545455 2.78125  C 0.0994318181818182 2.63541666666667  0 2.45833333333333  0 2.25  L 0 0.75  C 0 0.541666666666666  0.0994318181818182 0.364583333333332  0.298295454545455 0.21875  C 0.497159090909091 0.0729166666666661  0.738636363636364 0  1.02272727272727 0  L 13.9772727272727 0  C 14.2613636363636 0  14.5028409090909 0.0729166666666661  14.7017045454545 0.21875  Z " fill-rule="nonzero" fill="#000000" stroke="none" transform="matrix(1 0 0 1 277 234 )" />
  </g>
</svg>