<?xml version="1.0" encoding="utf-8"?>
<svg version="1.1" xmlns:xlink="http://www.w3.org/1999/xlink" width="9px" height="14px" xmlns="http://www.w3.org/2000/svg">
  <g transform="matrix(1 0 0 1 -590 -216 )">
    <path d="M 9 1.99751861042184  C 9 2.14805624483044  8.94498069498069 2.27832919768403  8.83494208494209 2.38833746898263  L 4.22200772200772 7  L 8.83494208494209 11.6116625310174  C 8.94498069498069 11.721670802316  9 11.8519437551696  9 12.0024813895782  C 9 12.1530190239868  8.94498069498069 12.2832919768404  8.83494208494209 12.393300248139  L 7.39285714285714 13.8349875930521  C 7.28281853281853 13.9449958643507  7.15250965250965 14  7.0019305019305 14  C 6.85135135135135 14  6.72104247104247 13.9449958643507  6.61100386100386 13.8349875930521  L 0.165057915057915 7.39081885856079  C 0.0550193050193051 7.2808105872622  0 7.1505376344086  0 7  C 0 6.8494623655914  0.0550193050193051 6.7191894127378  0.165057915057915 6.60918114143921  L 6.61100386100386 0.16501240694789  C 6.72104247104247 0.0550041356492963  6.85135135135135 0  7.0019305019305 0  C 7.15250965250965 0  7.28281853281853 0.0550041356492963  7.39285714285714 0.16501240694789  L 8.83494208494209 1.60669975186104  C 8.94498069498069 1.71670802315963  9 1.84698097601323  9 1.99751861042184  Z " fill-rule="nonzero" fill="#555555" stroke="none" transform="matrix(1 0 0 1 590 216 )" />
  </g>
</svg>