<?xml version="1.0" encoding="utf-8"?>
<svg version="1.1" xmlns:xlink="http://www.w3.org/1999/xlink" width="51px" height="51px" xmlns="http://www.w3.org/2000/svg">
  <g transform="matrix(1 0 0 1 -1266 -303 )">
    <path d="M 1291.5 303  C 1305.78 303  1317 314.22  1317 328.5  C 1317 342.78  1305.78 354  1291.5 354  C 1277.22 354  1266 342.78  1266 328.5  C 1266 314.22  1277.22 303  1291.5 303  Z " fill-rule="nonzero" fill="#ffffff" stroke="none" />
    <path d="M 1291.5 303.5  C 1305.5 303.5  1316.5 314.5  1316.5 328.5  C 1316.5 342.5  1305.5 353.5  1291.5 353.5  C 1277.5 353.5  1266.5 342.5  1266.5 328.5  C 1266.5 314.5  1277.5 303.5  1291.5 303.5  Z " stroke-width="1" stroke="#797979" fill="none" />
  </g>
</svg>