<?xml version="1.0" encoding="utf-8"?>
<svg version="1.1" xmlns:xlink="http://www.w3.org/1999/xlink" width="19px" height="18px" xmlns="http://www.w3.org/2000/svg">
  <g transform="matrix(1 0 0 1 -1598 -173 )">
    <path d="M 11.4753605769231 8.77734375  C 11.6199919871795 8.62890625  11.6923076923077 8.453125  11.6923076923077 8.25  C 11.6923076923077 8.046875  11.6199919871795 7.87109375  11.4753605769231 7.72265625  C 11.3307291666667 7.57421875  11.1594551282051 7.5  10.9615384615385 7.5  L 8.03846153846154 7.5  C 7.84054487179487 7.5  7.66927083333333 7.57421875  7.52463942307692 7.72265625  C 7.38000801282051 7.87109375  7.30769230769231 8.046875  7.30769230769231 8.25  C 7.30769230769231 8.453125  7.38000801282051 8.62890625  7.52463942307692 8.77734375  C 7.66927083333333 8.92578125  7.84054487179487 9  8.03846153846154 9  L 10.9615384615385 9  C 11.1594551282051 9  11.3307291666667 8.92578125  11.4753605769231 8.77734375  Z M 18.0522836538462 5.47265625  C 18.1969150641026 5.62109375  18.2692307692308 5.796875  18 6  L 18 17.25  C 18.2692307692308 17.453125  18.1969150641026 17.62890625  18.0522836538462 17.77734375  C 17.9076522435897 17.92578125  17.7363782051282 18  17.5384615384615 18  L 1.46153846153846 18  C 1.2636217948718 18  1.09234775641026 17.92578125  0.947716346153846 17.77734375  C 0.803084935897436 17.62890625  0.730769230769231 17.453125  1 17.25  L 1 6  C 0.730769230769231 5.796875  0.803084935897436 5.62109375  0.947716346153846 5.47265625  C 1.09234775641026 5.32421875  1.2636217948718 5.25  1.46153846153846 5.25  L 17.5384615384615 5.25  C 17.7363782051282 5.25  17.9076522435897 5.32421875  18.0522836538462 5.47265625  Z M 18.7830528846154 0.222656249999999  C 18.9276842948718 0.371093749999998  19 0.546874999999998  19 0.749999999999999  L 19 3.75  C 19 3.953125  18.9276842948718 4.12890625  18.7830528846154 4.27734375  C 18.638421474359 4.42578125  18.4671474358974 4.5  18.2692307692308 4.5  L 0.730769230769231 4.5  C 0.532852564102564 4.5  0.361578525641026 4.42578125  0.216947115384615 4.27734375  C 0.0723157051282052 4.12890625  0 3.953125  0 3.75  L 0 0.749999999999999  C 0 0.546874999999998  0.0723157051282052 0.371093749999998  0.216947115384615 0.222656249999999  C 0.361578525641026 0.0742187499999991  0.532852564102564 0  0.730769230769231 0  L 18.2692307692308 0  C 18.4671474358974 0  18.638421474359 0.0742187499999991  18.7830528846154 0.222656249999999  Z " fill-rule="nonzero" fill="#555555" stroke="none" transform="matrix(1 0 0 1 1598 173 )" />
  </g>
</svg>