<?xml version="1.0" encoding="utf-8"?>
<svg version="1.1" xmlns:xlink="http://www.w3.org/1999/xlink" width="30px" height="33px" xmlns="http://www.w3.org/2000/svg">
  <g transform="matrix(1 0 0 1 -1924 -252 )">
    <path d="M 20.8954326923077 25.0354352678571  C 21.4002403846154 24.4400111607143  21.6526442307692 23.6941964285714  21.6526442307692 22.7979910714286  C 21.6526442307692 22.0982142857143  21.6195913461538 21.44140625  21.5534855769231 20.8275669642857  C 21.4873798076923 20.2137276785714  21.3611778846154 19.5968191964286  21.1748798076923 18.9768415178571  C 20.9885817307692 18.3568638392857  20.7512019230769 17.8289620535714  20.4627403846154 17.3931361607143  C 20.1742788461538 16.9573102678571  19.7896634615385 16.6012834821429  19.3088942307692 16.3250558035714  C 18.828125 16.048828125  18.28125 15.9107142857143  17.6682692307692 15.9107142857143  C 17.5961538461538 15.9598214285714  17.3948317307692 16.0856584821429  17.0643028846154 16.2882254464286  C 16.7337740384615 16.4907924107143  16.4783653846154 16.6411830357143  16.2980769230769 16.7393973214286  C 16.1177884615385 16.8376116071429  15.8743990384615 16.9603794642857  15.5679086538462 17.1077008928571  C 15.2614182692308 17.2550223214286  14.9669471153846 17.359375  14.6844951923077 17.4207589285714  C 14.4020432692308 17.4821428571429  14.1225961538462 17.5128348214286  13.8461538461538 17.5128348214286  C 13.5697115384615 17.5128348214286  13.2902644230769 17.4821428571429  13.0078125 17.4207589285714  C 12.7253605769231 17.359375  12.4308894230769 17.2550223214286  12.1243990384615 17.1077008928571  C 11.8179086538462 16.9603794642857  11.5745192307692 16.8376116071429  11.3942307692308 16.7393973214286  C 11.2139423076923 16.6411830357143  10.9585336538462 16.4907924107143  10.6280048076923 16.2882254464286  C 10.2974759615385 16.0856584821429  10.0961538461538 15.9598214285714  10.0240384615385 15.9107142857143  C 9.41105769230769 15.9107142857143  8.86418269230769 16.048828125  8.38341346153846 16.3250558035714  C 7.90264423076923 16.6012834821429  7.51802884615385 16.9573102678571  7.22956730769231 17.3931361607143  C 6.94110576923077 17.8289620535714  6.70372596153846 18.3568638392857  6.51742788461538 18.9768415178571  C 6.33112980769231 19.5968191964286  6.20492788461539 20.2137276785714  6.13882211538462 20.8275669642857  C 6.07271634615385 21.44140625  6.03966346153846 22.0982142857143  6.03966346153846 22.7979910714286  C 6.03966346153846 23.6941964285714  6.29206730769231 24.4400111607143  6.796875 25.0354352678571  C 7.30168269230769 25.630859375  7.92067307692308 25.9285714285714  8.65384615384615 26  L 19.0384615384615 26  C 19.7716346153846 25.9285714285714  20.390625 25.630859375  20.8954326923077 25.0354352678571  Z M 17.1544471153846 15.2293526785714  C 18.0739182692308 14.2963169642857  18.5336538461538 13.1729910714286  18.5336538461538 11.859375  C 18.5336538461538 10.5334821428571  18.0739182692308 9.40401785714285  17.1544471153846 8.47098214285714  C 16.2349759615385 7.53794642857143  15.1322115384615 7.07142857142857  13.8461538461538 7.07142857142857  C 12.5600961538462 7.07142857142857  11.4573317307692 7.53794642857143  10.5378605769231 8.47098214285714  C 9.61838942307692 9.40401785714285  9.15865384615385 10.5334821428571  9.15865384615385 11.859375  C 9.15865384615385 13.1729910714286  9.61838942307692 14.2963169642857  10.5378605769231 15.2293526785714  C 11.4573317307692 16.1623883928571  12.5600961538462 16.62890625  13.8461538461538 16.62890625  C 15.1322115384615 16.62890625  16.2349759615385 16.1623883928571  17.1544471153846 15.2293526785714  Z M 29.8377403846154 21.3800223214286  C 29.9459134615385 21.4905133928571  30 21.6316964285714  30 21.8035714285714  L 30 25.3392857142857  C 30 25.5111607142857  29.9459134615385 25.65234375  29.8377403846154 25.7628348214286  C 29.7295673076923 25.8733258928571  29.5913461538462 25.9285714285714  29.4230769230769 25.9285714285714  L 27.6923076923077 25.9285714285714  L 27.6923076923077 30.0535714285714  C 27.6923076923077 30.8638392857143  27.4098557692308 31.5574776785714  26.8449519230769 32.1344866071429  C 26.2800480769231 32.7114955357143  25.6009615384615 33  24.8076923076923 33  L 2.88461538461538 33  C 2.09134615384615 33  1.41225961538462 32.7114955357143  0.847355769230769 32.1344866071429  C 0.282451923076923 31.5574776785714  0 30.8638392857143  0 30.0535714285714  L 0 2.94642857142857  C 0 2.13616071428572  0.282451923076923 1.44252232142857  0.847355769230769 0.865513392857144  C 1.41225961538462 0.288504464285715  2.09134615384615 0  2.88461538461538 0  L 24.8076923076923 0  C 25.6009615384615 0  26.2800480769231 0.288504464285715  26.8449519230769 0.865513392857144  C 27.4098557692308 1.44252232142857  27.6923076923077 2.13616071428572  27.6923076923077 2.94642857142857  L 27.6923076923077 7.07142857142857  L 29.4230769230769 7.07142857142857  C 29.5913461538462 7.07142857142857  29.7295673076923 7.12667410714286  29.8377403846154 7.23716517857143  C 29.9459134615385 7.34765625  30 7.48883928571428  30 7.66071428571428  L 30 11.1964285714286  C 30 11.3683035714286  29.9459134615385 11.5094866071429  29.8377403846154 11.6199776785714  C 29.7295673076923 11.73046875  29.5913461538462 11.7857142857143  29.4230769230769 11.7857142857143  L 27.6923076923077 11.7857142857143  L 27.6923076923077 14.1428571428571  L 29.4230769230769 14.1428571428571  C 29.5913461538462 14.1428571428571  29.7295673076923 14.1981026785714  29.8377403846154 14.30859375  C 29.9459134615385 14.4190848214286  30 14.5602678571429  30 14.7321428571429  L 30 18.2678571428571  C 30 18.4397321428571  29.9459134615385 18.5809151785714  29.8377403846154 18.69140625  C 29.7295673076923 18.8018973214286  29.5913461538462 18.8571428571429  29.4230769230769 18.8571428571429  L 27.6923076923077 18.8571428571429  L 27.6923076923077 21.2142857142857  L 29.4230769230769 21.2142857142857  C 29.5913461538462 21.2142857142857  29.7295673076923 21.26953125  29.8377403846154 21.3800223214286  Z " fill-rule="nonzero" fill="#000000" stroke="none" transform="matrix(1 0 0 1 1924 252 )" />
  </g>
</svg>