<?xml version="1.0" encoding="utf-8"?>
<svg version="1.1" xmlns:xlink="http://www.w3.org/1999/xlink" width="9px" height="16px" xmlns="http://www.w3.org/2000/svg">
  <g transform="matrix(1 0 0 1 -2071 -314 )">
    <path d="M 0 2.28287841191067  C 0 2.45492142266336  0.0550193050193047 2.60380479735318  0.165057915057915 2.72952853598015  L 4.77799227799228 8  L 0.165057915057915 13.2704714640199  C 0.0550193050193047 13.3961952026468  0 13.5450785773366  0 13.7171215880893  C 0 13.889164598842  0.0550193050193047 14.0380479735318  0.165057915057915 14.1637717121588  L 1.60714285714286 15.8114143920596  C 1.71718146718147 15.9371381306865  1.84749034749035 16  1.9980694980695 16  C 2.14864864864865 16  2.27895752895753 15.9371381306865  2.38899613899614 15.8114143920596  L 8.83494208494209 8.44665012406948  C 8.94498069498069 8.32092638544251  9 8.17204301075269  9 8  C 9 7.82795698924731  8.94498069498069 7.67907361455748  8.83494208494209 7.55334987593052  L 2.38899613899614 0.188585607940446  C 2.27895752895753 0.0628618693134815  2.14864864864865 0  1.9980694980695 0  C 1.84749034749035 0  1.71718146718147 0.0628618693134815  1.60714285714286 0.188585607940446  L 0.165057915057915 1.83622828784119  C 0.0550193050193047 1.96195202646815  0 2.11083540115798  0 2.28287841191067  Z " fill-rule="nonzero" fill="#555555" stroke="none" transform="matrix(1 0 0 1 2071 314 )" />
  </g>
</svg>