<?xml version="1.0" encoding="utf-8"?>
<svg version="1.1" xmlns:xlink="http://www.w3.org/1999/xlink" width="53px" height="53px" xmlns="http://www.w3.org/2000/svg">
  <g transform="matrix(1 0 0 1 -1767 -356 )">
    <path d="M 1793.5 356  C 1808.34 356  1820 367.66  1820 382.5  C 1820 397.34  1808.34 409  1793.5 409  C 1778.66 409  1767 397.34  1767 382.5  C 1767 367.66  1778.66 356  1793.5 356  Z " fill-rule="nonzero" fill="#ffffff" stroke="none" />
    <path d="M 1793.5 356.5  C 1808.06 356.5  1819.5 367.94  1819.5 382.5  C 1819.5 397.06  1808.06 408.5  1793.5 408.5  C 1778.94 408.5  1767.5 397.06  1767.5 382.5  C 1767.5 367.94  1778.94 356.5  1793.5 356.5  Z " stroke-width="1" stroke="#797979" fill="none" />
  </g>
</svg>