<?xml version="1.0" encoding="utf-8"?>
<svg version="1.1" xmlns:xlink="http://www.w3.org/1999/xlink" width="14px" height="3px" xmlns="http://www.w3.org/2000/svg">
  <g transform="matrix(1 0 0 1 -740 -322 )">
    <path d="M 13.7215909090909 0.21875  C 13.907196969697 0.364583333333332  14 0.541666666666666  14 0.75  L 14 2.25  C 14 2.45833333333333  13.907196969697 2.63541666666667  13.7215909090909 2.78125  C 13.5359848484848 2.92708333333333  13.3106060606061 3  13.0454545454545 3  L 0.954545454545454 3  C 0.689393939393939 3  0.464015151515152 2.92708333333333  0.278409090909091 2.78125  C 0.0928030303030303 2.63541666666667  0 2.45833333333333  0 2.25  L 0 0.75  C 0 0.541666666666666  0.0928030303030303 0.364583333333332  0.278409090909091 0.21875  C 0.464015151515152 0.0729166666666661  0.689393939393939 0  0.954545454545454 0  L 13.0454545454545 0  C 13.3106060606061 0  13.5359848484848 0.0729166666666661  13.7215909090909 0.21875  Z " fill-rule="nonzero" fill="#555555" stroke="none" transform="matrix(1 0 0 1 740 322 )" />
  </g>
</svg>