<?xml version="1.0" encoding="utf-8"?>
<svg version="1.1" xmlns:xlink="http://www.w3.org/1999/xlink" width="27px" height="27px" xmlns="http://www.w3.org/2000/svg">
  <g transform="matrix(1 0 0 1 -1078 -231 )">
    <path d="M 1091.5 231  C 1099.06 231  1105 236.94  1105 244.5  C 1105 252.06  1099.06 258  1091.5 258  C 1083.94 258  1078 252.06  1078 244.5  C 1078 236.94  1083.94 231  1091.5 231  Z " fill-rule="nonzero" fill="#02a7f0" stroke="none" />
    <path d="M 1091.5 231.5  C 1098.78 231.5  1104.5 237.22  1104.5 244.5  C 1104.5 251.78  1098.78 257.5  1091.5 257.5  C 1084.22 257.5  1078.5 251.78  1078.5 244.5  C 1078.5 237.22  1084.22 231.5  1091.5 231.5  Z " stroke-width="1" stroke="#d7d7d7" fill="none" />
  </g>
</svg>