<?xml version="1.0" encoding="utf-8"?>
<svg version="1.1" xmlns:xlink="http://www.w3.org/1999/xlink" width="178px" height="178px" xmlns="http://www.w3.org/2000/svg">
  <g transform="matrix(1 0 0 1 -253 -246 )">
    <path d="M 253 246  L 431 246  L 431 424  L 253 424  L 253 246  " fill-rule="nonzero" fill="#cccccc" stroke="none" />
    <path d="M 265 258  L 419 258  L 419 412  L 265 412  L 265 258  " fill-rule="nonzero" fill="#ffffff" stroke="none" />
    <path d="M 358.91 299.4  C 351.434 299.4  345.56 293.526  345.56 286.05  C 345.56 278.574  351.434 272.7  358.91 272.7  C 366.386 272.7  372.26 278.574  372.26 286.05  C 372.26 293.526  366.386 299.4  358.91 299.4  " fill-rule="nonzero" fill="#cccccc" stroke="none" />
    <path d="M 270 408  L 270 328.25  L 306.25 292  L 357 321  L 386 313.75  L 415 321  L 415 408  L 270 408  " fill-rule="nonzero" fill="#169bd5" stroke="none" />
  </g>
</svg>