<?xml version="1.0" encoding="utf-8"?>
<svg version="1.1" xmlns:xlink="http://www.w3.org/1999/xlink" width="12px" height="19px" xmlns="http://www.w3.org/2000/svg">
  <g transform="matrix(1 0 0 1 -756 -1046 )">
    <path d="M 12 2.71091811414392  C 12 2.91521918941274  11.9266409266409 3.0920181968569  11.7799227799228 3.24131513647643  L 5.62934362934363 9.5  L 11.7799227799228 15.7586848635236  C 11.9266409266409 15.9079818031431  12 16.0847808105873  12 16.2890818858561  C 12 16.4933829611249  11.9266409266409 16.6701819685691  11.7799227799228 16.8194789081886  L 9.85714285714286 18.7760545905707  C 9.71042471042471 18.9253515301902  9.53667953667954 19  9.33590733590734 19  C 9.13513513513514 19  8.96138996138996 18.9253515301902  8.81467181467182 18.7760545905707  L 0.22007722007722 10.0303970223325  C 0.0733590733590735 9.88110008271298  0 9.70430107526882  0 9.5  C 0 9.29569892473118  0.0733590733590735 9.11889991728701  0.22007722007722 8.9696029776675  L 8.81467181467182 0.22394540942928  C 8.96138996138996 0.0746484698097593  9.13513513513514 0  9.33590733590734 0  C 9.53667953667954 0  9.71042471042471 0.0746484698097593  9.85714285714286 0.22394540942928  L 11.7799227799228 2.18052109181141  C 11.9266409266409 2.32981803143093  12 2.5066170388751  12 2.71091811414392  Z " fill-rule="nonzero" fill="#555555" stroke="none" transform="matrix(1 0 0 1 756 1046 )" />
  </g>
</svg>