<?xml version="1.0" encoding="utf-8"?>
<svg version="1.1" xmlns:xlink="http://www.w3.org/1999/xlink" width="139px" height="30px" xmlns="http://www.w3.org/2000/svg">
  <g transform="matrix(1 0 0 1 -1152 -480 )">
    <path d="M 1153 495  A 14 14 0 0 1 1167 481 L 1276 481  A 14 14 0 0 1 1290 495 A 14 14 0 0 1 1276 509 L 1167 509  A 14 14 0 0 1 1153 495 Z " fill-rule="nonzero" fill="#ffffff" stroke="none" />
    <path d="M 1152.5 495  A 14.5 14.5 0 0 1 1167 480.5 L 1276 480.5  A 14.5 14.5 0 0 1 1290.5 495 A 14.5 14.5 0 0 1 1276 509.5 L 1167 509.5  A 14.5 14.5 0 0 1 1152.5 495 Z " stroke-width="1" stroke="#d9001b" fill="none" stroke-opacity="0.690196078431373" />
  </g>
</svg>