<?xml version="1.0" encoding="utf-8"?>
<svg version="1.1" xmlns:xlink="http://www.w3.org/1999/xlink" width="139px" height="30px" xmlns="http://www.w3.org/2000/svg">
  <g transform="matrix(1 0 0 1 -281 -533 )">
    <path d="M 282 548  A 14 14 0 0 1 296 534 L 405 534  A 14 14 0 0 1 419 548 A 14 14 0 0 1 405 562 L 296 562  A 14 14 0 0 1 282 548 Z " fill-rule="nonzero" fill="#ffffff" stroke="none" />
    <path d="M 281.5 548  A 14.5 14.5 0 0 1 296 533.5 L 405 533.5  A 14.5 14.5 0 0 1 419.5 548 A 14.5 14.5 0 0 1 405 562.5 L 296 562.5  A 14.5 14.5 0 0 1 281.5 548 Z " stroke-width="1" stroke="#555555" fill="none" stroke-opacity="0.690196078431373" />
  </g>
</svg>