<?xml version="1.0" encoding="utf-8"?>
<svg version="1.1" xmlns:xlink="http://www.w3.org/1999/xlink" width="15px" height="15px" xmlns="http://www.w3.org/2000/svg">
  <g transform="matrix(1 0 0 1 -493 -296 )">
    <path d="M 7.5 14.3303571428571  C 7.57920792079208 14.3303571428571  7.61881188118812 14.2857142857143  7.61881188118812 14.1964285714286  C 7.61881188118812 14.1071428571429  7.57920792079208 14.0625  7.5 14.0625  C 7.20792079207921 14.0625  6.95668316831683 13.9439174107143  6.74628712871287 13.7067522321429  C 6.53589108910891 13.4695870535714  6.43069306930693 13.1863839285714  6.43069306930693 12.8571428571429  C 6.43069306930693 12.7678571428571  6.39108910891089 12.7232142857143  6.31188118811881 12.7232142857143  C 6.23267326732673 12.7232142857143  6.19306930693069 12.7678571428571  6.19306930693069 12.8571428571429  C 6.19306930693069 13.2645089285714  6.32054455445545 13.6118861607143  6.57549504950495 13.8992745535714  C 6.83044554455446 14.1866629464286  7.13861386138614 14.3303571428571  7.5 14.3303571428571  Z M 4.64851485148515 4.82142857142857  C 4.64851485148515 6.96428571428571  4.30940594059406 8.76395089285714  3.63118811881188 10.2204241071429  L 10.1435643564356 3.85881696428571  C 9.93564356435644 3.36774553571428  9.60767326732673 2.958984375  9.15965346534654 2.63253348214286  C 8.71163366336634 2.30608258928571  8.15841584158416 2.14285714285714  7.5 2.14285714285714  C 7.03960396039604 2.14285714285714  6.6200495049505 2.23074776785714  6.24133663366337 2.40652901785714  C 5.86262376237624 2.58231026785714  5.56188118811881 2.80691964285714  5.33910891089109 3.08035714285714  C 5.11633663366337 3.35379464285714  4.94554455445545 3.64118303571429  4.82673267326733 3.94252232142857  C 4.70792079207921 4.24386160714286  4.64851485148515 4.53683035714286  4.64851485148515 4.82142857142857  Z M 11.4653465346535 7.13169642857143  C 11.7673267326733 9.11830357142857  12.5049504950495 10.6696428571429  13.6782178217822 11.7857142857143  C 13.6782178217822 12.0758928571429  13.5841584158416 12.3270089285714  13.3960396039604 12.5390625  C 13.2079207920792 12.7511160714286  12.9851485148515 12.8571428571429  12.7277227722772 12.8571428571429  L 9.4009900990099 12.8571428571429  C 9.4009900990099 13.4486607142857  9.21534653465346 13.9536830357143  8.84405940594059 14.3722098214286  C 8.47277227722772 14.7907366071429  8.02475247524753 15  7.5 15  C 6.97524752475248 15  6.52846534653465 14.7921316964286  6.15965346534653 14.3763950892857  C 5.79084158415842 13.9606584821429  5.6039603960396 13.45703125  5.5990099009901 12.8655133928571  L 6.70544554455446 11.7857142857143  L 12.3267326732673 11.7857142857143  C 11.5049504950495 10.7421875  10.9430693069307 9.46149553571429  10.6410891089109 7.94363839285714  L 11.4653465346535 7.13169642857143  Z M 14.1571782178218 0.041852678571429  C 14.2240099009901 0.0474330357142849  14.2772277227723 0.0781249999999989  14.3168316831683 0.133928571428571  L 14.9405940594059 0.9375  C 14.980198019802 0.99330357142857  14.9987623762376 1.05887276785714  14.9962871287129 1.13420758928571  C 14.9938118811881 1.20954241071429  14.9678217821782 1.27232142857143  14.9183168316832 1.32254464285714  L 1.01732673267327 14.8995535714286  C 0.967821782178218 14.9441964285714  0.909653465346535 14.9637276785714  0.842821782178218 14.9581473214286  C 0.775990099009901 14.9525669642857  0.722772277227723 14.921875  0.683168316831683 14.8660714285714  L 0.0594059405940594 14.0625  C 0.0198019801980198 14.0066964285714  0.00123762376237625 13.9411272321429  0.00371287128712871 13.8657924107143  C 0.00618811881188121 13.7904575892857  0.0321782178217822 13.73046875  0.0816831683168317 13.6858258928571  L 1.46287128712871 12.3381696428571  C 1.36881188118812 12.1595982142857  1.32178217821782 11.9754464285714  1.32178217821782 11.7857142857143  C 1.56930693069307 11.5513392857143  1.79455445544554 11.3058035714286  1.99752475247525 11.0491071428571  C 2.20049504950495 10.7924107142857  2.41089108910891 10.458984375  2.62871287128713 10.048828125  C 2.84653465346535 9.638671875  3.03094059405941 9.19642857142857  3.18193069306931 8.72209821428572  C 3.33292079207921 8.24776785714286  3.45668316831683 7.67299107142857  3.55321782178218 6.99776785714286  C 3.64975247524752 6.32254464285714  3.6980198019802 5.59709821428571  3.6980198019802 4.82142857142857  C 3.6980198019802 3.97321428571428  3.98762376237624 3.18498883928571  4.56683168316832 2.45675223214286  C 5.1460396039604 1.728515625  5.90594059405941 1.28627232142857  6.84653465346535 1.13002232142857  C 6.80693069306931 1.02399553571428  6.78712871287129 0.915178571428572  6.78712871287129 0.803571428571429  C 6.78712871287129 0.580357142857142  6.85643564356436 0.390624999999999  6.9950495049505 0.234375  C 7.13366336633663 0.0781250000000006  7.3019801980198 0  7.5 0  C 7.6980198019802 0  7.86633663366337 0.0781250000000006  8.00495049504951 0.234375  C 8.14356435643565 0.390624999999999  8.21287128712871 0.580357142857142  8.21287128712871 0.803571428571429  C 8.21287128712871 0.915178571428572  8.1930693069307 1.02399553571428  8.15346534653465 1.13002232142857  C 8.76732673267327 1.23046875  9.30940594059406 1.46065848214286  9.77970297029703 1.82059151785714  C 10.25 2.18052455357143  10.6163366336634 2.61997767857143  10.8787128712871 3.13895089285714  L 13.9826732673267 0.100446428571429  C 14.0321782178218 0.0558035714285704  14.0903465346535 0.0362723214285715  14.1571782178218 0.041852678571429  Z " fill-rule="nonzero" fill="#ffffff" stroke="none" transform="matrix(1 0 0 1 493 296 )" />
  </g>
</svg>