<?xml version="1.0" encoding="utf-8"?>
<svg version="1.1" xmlns:xlink="http://www.w3.org/1999/xlink" width="66px" height="66px" xmlns="http://www.w3.org/2000/svg">
  <g transform="matrix(1 0 0 1 -317 -397 )">
    <path d="M 350 397  C 368.48 397  383 411.52  383 430  C 383 448.48  368.48 463  350 463  C 331.52 463  317 448.48  317 430  C 317 411.52  331.52 397  350 397  Z " fill-rule="nonzero" fill="#ffffff" stroke="none" />
    <path d="M 350 397.5  C 368.2 397.5  382.5 411.8  382.5 430  C 382.5 448.2  368.2 462.5  350 462.5  C 331.8 462.5  317.5 448.2  317.5 430  C 317.5 411.8  331.8 397.5  350 397.5  Z " stroke-width="1" stroke="#797979" fill="none" />
  </g>
</svg>