<?xml version="1.0" encoding="utf-8"?>
<svg version="1.1" xmlns:xlink="http://www.w3.org/1999/xlink" width="51px" height="51px" xmlns="http://www.w3.org/2000/svg">
  <g transform="matrix(1 0 0 1 -172 -278 )">
    <path d="M 197.5 278  C 211.78 278  223 289.22  223 303.5  C 223 317.78  211.78 329  197.5 329  C 183.22 329  172 317.78  172 303.5  C 172 289.22  183.22 278  197.5 278  Z " fill-rule="nonzero" fill="#ffffff" stroke="none" />
    <path d="M 197.5 278.5  C 211.5 278.5  222.5 289.5  222.5 303.5  C 222.5 317.5  211.5 328.5  197.5 328.5  C 183.5 328.5  172.5 317.5  172.5 303.5  C 172.5 289.5  183.5 278.5  197.5 278.5  Z " stroke-width="1" stroke="#797979" fill="none" />
  </g>
</svg>