<?xml version="1.0" encoding="utf-8"?>
<svg version="1.1" xmlns:xlink="http://www.w3.org/1999/xlink" width="9px" height="14px" xmlns="http://www.w3.org/2000/svg">
  <g transform="matrix(1 0 0 1 -508 -182 )">
    <path d="M 0 12.0024813895782  C 0 11.8519437551696  0.0550193050193047 11.721670802316  0.165057915057915 11.6116625310174  L 4.77799227799228 7  L 0.165057915057915 2.38833746898263  C 0.0550193050193047 2.27832919768404  0 2.14805624483044  0 1.99751861042184  C 0 1.84698097601324  0.0550193050193047 1.71670802315964  0.165057915057915 1.60669975186104  L 1.60714285714286 0.16501240694789  C 1.71718146718147 0.0550041356492963  1.84749034749035 0  1.9980694980695 0  C 2.14864864864865 0  2.27895752895753 0.0550041356492963  2.38899613899614 0.16501240694789  L 8.83494208494209 6.60918114143921  C 8.94498069498069 6.7191894127378  9 6.8494623655914  9 7  C 9 7.1505376344086  8.94498069498069 7.2808105872622  8.83494208494209 7.39081885856079  L 2.38899613899614 13.8349875930521  C 2.27895752895753 13.9449958643507  2.14864864864865 14  1.9980694980695 14  C 1.84749034749035 14  1.71718146718147 13.9449958643507  1.60714285714286 13.8349875930521  L 0.165057915057915 12.393300248139  C 0.0550193050193047 12.2832919768404  0 12.1530190239868  0 12.0024813895782  Z " fill-rule="nonzero" fill="#555555" stroke="none" transform="matrix(1 0 0 1 508 182 )" />
  </g>
</svg>