<?xml version="1.0" encoding="utf-8"?>
<svg version="1.1" xmlns:xlink="http://www.w3.org/1999/xlink" width="178px" height="178px" xmlns="http://www.w3.org/2000/svg">
  <g>
    <path d="M 0 0  L 178 0  L 178 178  L 0 178  L 0 0  " fill-rule="nonzero" fill="#cccccc" stroke="none" />
    <path d="M 12 12  L 166 12  L 166 166  L 12 166  L 12 12  " fill-rule="nonzero" fill="#ffffff" stroke="none" />
    <path d="M 105.91 53.4  C 98.434 53.4  92.56 47.526  92.56 40.05  C 92.56 32.574  98.434 26.7  105.91 26.7  C 113.386 26.7  119.26 32.574  119.26 40.05  C 119.26 47.526  113.386 53.4  105.91 53.4  " fill-rule="nonzero" fill="#cccccc" stroke="none" />
    <path d="M 17 162  L 17 82.25  L 53.25 46  L 104 75  L 133 67.75  L 162 75  L 162 162  L 17 162  " fill-rule="nonzero" fill="#169bd5" stroke="none" />
  </g>
</svg>