<?xml version="1.0" encoding="utf-8"?>
<svg version="1.1" xmlns:xlink="http://www.w3.org/1999/xlink" width="26px" height="26px" xmlns="http://www.w3.org/2000/svg">
  <g transform="matrix(1 0 0 1 -274 -843 )">
    <path d="M 287 843  C 294.28 843  300 848.72  300 856  C 300 863.28  294.28 869  287 869  C 279.72 869  274 863.28  274 856  C 274 848.72  279.72 843  287 843  Z " fill-rule="nonzero" fill="#ffffff" stroke="none" />
    <path d="M 287 843.5  C 294 843.5  299.5 849  299.5 856  C 299.5 863  294 868.5  287 868.5  C 280 868.5  274.5 863  274.5 856  C 274.5 849  280 843.5  287 843.5  Z " stroke-width="1" stroke="#797979" fill="none" />
  </g>
</svg>