<?xml version="1.0" encoding="utf-8"?>
<svg version="1.1" xmlns:xlink="http://www.w3.org/1999/xlink" width="241px" height="241px" xmlns="http://www.w3.org/2000/svg">
  <g>
    <path d="M 0 0  L 241 0  L 241 241  L 0 241  L 0 0  " fill-rule="nonzero" fill="#cccccc" stroke="none" />
    <path d="M 17 17  L 224 17  L 224 224  L 17 224  L 17 17  " fill-rule="nonzero" fill="#ffffff" stroke="none" />
    <path d="M 143.395 72.3  C 133.273 72.3  125.32 64.347  125.32 54.225  C 125.32 44.103  133.273 36.15  143.395 36.15  C 153.517 36.15  161.47 44.103  161.47 54.225  C 161.47 64.347  153.517 72.3  143.395 72.3  " fill-rule="nonzero" fill="#cccccc" stroke="none" />
    <path d="M 23 218  L 23 110.75  L 71.75 62  L 140 101  L 179 91.25  L 218 101  L 218 218  L 23 218  " fill-rule="nonzero" fill="#169bd5" stroke="none" />
  </g>
</svg>